<mxfile host="Electron" agent="Mozilla/5.0 (Windows NT 10.0; Win64; x64) AppleWebKit/537.36 (KHTML, like Gecko) draw.io/27.0.5 Chrome/134.0.6998.205 Electron/35.3.0 Safari/537.36" version="27.0.5">
  <diagram name="第 1 页" id="WdvL66ctTlRxDNSOGoVE">
    <mxGraphModel dx="2540" dy="2163" grid="1" gridSize="10" guides="1" tooltips="1" connect="1" arrows="1" fold="1" page="1" pageScale="1" pageWidth="690" pageHeight="980" background="none" math="0" shadow="0">
      <root>
        <mxCell id="0" />
        <mxCell id="1" parent="0" />
        <mxCell id="YGZD-DeqIZyNIQfhP6jQ-19" value="" style="rounded=0;whiteSpace=wrap;html=1;" vertex="1" parent="1">
          <mxGeometry x="630" y="-920" width="180" height="190" as="geometry" />
        </mxCell>
        <mxCell id="YGZD-DeqIZyNIQfhP6jQ-18" value="" style="rounded=0;whiteSpace=wrap;html=1;" vertex="1" parent="1">
          <mxGeometry x="630" y="-50" width="180" height="200" as="geometry" />
        </mxCell>
        <mxCell id="YGZD-DeqIZyNIQfhP6jQ-17" value="" style="rounded=0;whiteSpace=wrap;html=1;" vertex="1" parent="1">
          <mxGeometry x="370" y="-50" width="180" height="140" as="geometry" />
        </mxCell>
        <mxCell id="9tPwZeQdjvi17fgurPPk-10" value="Merchant" style="swimlane;childLayout=stackLayout;horizontal=1;startSize=50;horizontalStack=0;rounded=1;fontSize=14;fontStyle=0;strokeWidth=2;resizeParent=0;resizeLast=1;shadow=0;dashed=0;align=center;arcSize=4;whiteSpace=wrap;html=1;" parent="1" vertex="1">
          <mxGeometry x="640" y="-480" width="160" height="140" as="geometry" />
        </mxCell>
        <mxCell id="9tPwZeQdjvi17fgurPPk-11" value="&lt;div style=&quot;&quot;&gt;&lt;span style=&quot;background-color: transparent; color: light-dark(rgb(0, 0, 0), rgb(255, 255, 255));&quot;&gt;&lt;u&gt;merchantId&lt;/u&gt;&lt;/span&gt;&lt;/div&gt;name&lt;div&gt;&lt;br&gt;&lt;/div&gt;" style="align=left;strokeColor=none;fillColor=none;spacingLeft=4;spacingRight=4;fontSize=12;verticalAlign=top;resizable=0;rotatable=0;part=1;html=1;whiteSpace=wrap;" parent="9tPwZeQdjvi17fgurPPk-10" vertex="1">
          <mxGeometry y="50" width="160" height="90" as="geometry" />
        </mxCell>
        <mxCell id="9tPwZeQdjvi17fgurPPk-17" value="Application" style="swimlane;childLayout=stackLayout;horizontal=1;startSize=50;horizontalStack=0;rounded=1;fontSize=14;fontStyle=0;strokeWidth=2;resizeParent=0;resizeLast=1;shadow=0;dashed=0;align=center;arcSize=4;whiteSpace=wrap;html=1;" parent="1" vertex="1">
          <mxGeometry x="70" y="-480" width="160" height="180" as="geometry" />
        </mxCell>
        <mxCell id="9tPwZeQdjvi17fgurPPk-18" value="&lt;u&gt;applyId&lt;/u&gt;&lt;div&gt;companyName&lt;/div&gt;&lt;div&gt;submittedAt&lt;/div&gt;&lt;div&gt;audiStatus&lt;/div&gt;&lt;div&gt;autitAt&lt;/div&gt;&lt;div&gt;rejectReason&lt;/div&gt;" style="align=left;strokeColor=none;fillColor=none;spacingLeft=4;spacingRight=4;fontSize=12;verticalAlign=top;resizable=0;rotatable=0;part=1;html=1;whiteSpace=wrap;" parent="9tPwZeQdjvi17fgurPPk-17" vertex="1">
          <mxGeometry y="50" width="160" height="130" as="geometry" />
        </mxCell>
        <mxCell id="YGZD-DeqIZyNIQfhP6jQ-1" value="Admin" style="swimlane;childLayout=stackLayout;horizontal=1;startSize=50;horizontalStack=0;rounded=1;fontSize=14;fontStyle=0;strokeWidth=2;resizeParent=0;resizeLast=1;shadow=0;dashed=0;align=center;arcSize=4;whiteSpace=wrap;html=1;" vertex="1" parent="1">
          <mxGeometry x="70" y="-50" width="160" height="150" as="geometry" />
        </mxCell>
        <mxCell id="YGZD-DeqIZyNIQfhP6jQ-2" value="&lt;u&gt;adminId&lt;/u&gt;&lt;div&gt;roleId&lt;/div&gt;&lt;div&gt;permId&lt;/div&gt;&lt;div&gt;grantedAt&lt;/div&gt;" style="align=left;strokeColor=none;fillColor=none;spacingLeft=4;spacingRight=4;fontSize=12;verticalAlign=top;resizable=0;rotatable=0;part=1;html=1;whiteSpace=wrap;" vertex="1" parent="YGZD-DeqIZyNIQfhP6jQ-1">
          <mxGeometry y="50" width="160" height="100" as="geometry" />
        </mxCell>
        <mxCell id="YGZD-DeqIZyNIQfhP6jQ-3" value="Dish" style="swimlane;childLayout=stackLayout;horizontal=1;startSize=50;horizontalStack=0;rounded=1;fontSize=14;fontStyle=0;strokeWidth=2;resizeParent=0;resizeLast=1;shadow=0;dashed=0;align=center;arcSize=4;whiteSpace=wrap;html=1;" vertex="1" parent="1">
          <mxGeometry x="640" y="-910" width="160" height="170" as="geometry" />
        </mxCell>
        <mxCell id="YGZD-DeqIZyNIQfhP6jQ-4" value="&lt;u&gt;dishName&lt;/u&gt;&lt;div&gt;catId&lt;/div&gt;&lt;div&gt;price&lt;/div&gt;&lt;div&gt;originPrice&lt;/div&gt;&lt;div&gt;coverUrl&lt;/div&gt;&lt;div&gt;onSale&lt;/div&gt;" style="align=left;strokeColor=none;fillColor=none;spacingLeft=4;spacingRight=4;fontSize=12;verticalAlign=top;resizable=0;rotatable=0;part=1;html=1;whiteSpace=wrap;" vertex="1" parent="YGZD-DeqIZyNIQfhP6jQ-3">
          <mxGeometry y="50" width="160" height="120" as="geometry" />
        </mxCell>
        <mxCell id="YGZD-DeqIZyNIQfhP6jQ-5" value="Coupon" style="swimlane;childLayout=stackLayout;horizontal=1;startSize=50;horizontalStack=0;rounded=1;fontSize=14;fontStyle=0;strokeWidth=2;resizeParent=0;resizeLast=1;shadow=0;dashed=0;align=center;arcSize=4;whiteSpace=wrap;html=1;" vertex="1" parent="1">
          <mxGeometry x="1130" y="-50" width="160" height="190" as="geometry" />
        </mxCell>
        <mxCell id="YGZD-DeqIZyNIQfhP6jQ-6" value="&lt;u&gt;couponId&lt;/u&gt;&lt;div&gt;faceValue&lt;/div&gt;&lt;div&gt;threshold&lt;/div&gt;&lt;div&gt;totalQty&lt;/div&gt;&lt;div&gt;issuedQty&lt;/div&gt;&lt;div&gt;startTime&lt;/div&gt;&lt;div&gt;endTime&lt;/div&gt;" style="align=left;strokeColor=none;fillColor=none;spacingLeft=4;spacingRight=4;fontSize=12;verticalAlign=top;resizable=0;rotatable=0;part=1;html=1;whiteSpace=wrap;" vertex="1" parent="YGZD-DeqIZyNIQfhP6jQ-5">
          <mxGeometry y="50" width="160" height="140" as="geometry" />
        </mxCell>
        <mxCell id="YGZD-DeqIZyNIQfhP6jQ-7" value="SalesStat" style="swimlane;childLayout=stackLayout;horizontal=1;startSize=50;horizontalStack=0;rounded=1;fontSize=14;fontStyle=0;strokeWidth=2;resizeParent=0;resizeLast=1;shadow=0;dashed=0;align=center;arcSize=4;whiteSpace=wrap;html=1;" vertex="1" parent="1">
          <mxGeometry x="380" y="-40" width="160" height="120" as="geometry" />
        </mxCell>
        <mxCell id="YGZD-DeqIZyNIQfhP6jQ-8" value="&lt;u&gt;statDate&lt;/u&gt;&lt;div&gt;salesQty&lt;/div&gt;&lt;div&gt;salesAmount&lt;/div&gt;" style="align=left;strokeColor=none;fillColor=none;spacingLeft=4;spacingRight=4;fontSize=12;verticalAlign=top;resizable=0;rotatable=0;part=1;html=1;whiteSpace=wrap;" vertex="1" parent="YGZD-DeqIZyNIQfhP6jQ-7">
          <mxGeometry y="50" width="160" height="70" as="geometry" />
        </mxCell>
        <mxCell id="YGZD-DeqIZyNIQfhP6jQ-10" value="Settlement" style="swimlane;childLayout=stackLayout;horizontal=1;startSize=50;horizontalStack=0;rounded=1;fontSize=14;fontStyle=0;strokeWidth=2;resizeParent=0;resizeLast=1;shadow=0;dashed=0;align=center;arcSize=4;whiteSpace=wrap;html=1;" vertex="1" parent="1">
          <mxGeometry x="640" y="-40" width="160" height="180" as="geometry" />
        </mxCell>
        <mxCell id="YGZD-DeqIZyNIQfhP6jQ-11" value="&lt;u&gt;settleId&lt;/u&gt;&lt;div&gt;periodStart&lt;/div&gt;&lt;div&gt;periodEnd&lt;/div&gt;&lt;div&gt;grossAmount&lt;/div&gt;&lt;div&gt;commissionFee&lt;/div&gt;&lt;div&gt;netAmount()&lt;/div&gt;&lt;div&gt;settledAt&lt;/div&gt;" style="align=left;strokeColor=none;fillColor=none;spacingLeft=4;spacingRight=4;fontSize=12;verticalAlign=top;resizable=0;rotatable=0;part=1;html=1;whiteSpace=wrap;" vertex="1" parent="YGZD-DeqIZyNIQfhP6jQ-10">
          <mxGeometry y="50" width="160" height="130" as="geometry" />
        </mxCell>
        <mxCell id="YGZD-DeqIZyNIQfhP6jQ-12" value="Announcement" style="swimlane;childLayout=stackLayout;horizontal=1;startSize=50;horizontalStack=0;rounded=1;fontSize=14;fontStyle=0;strokeWidth=2;resizeParent=0;resizeLast=1;shadow=0;dashed=0;align=center;arcSize=4;whiteSpace=wrap;html=1;" vertex="1" parent="1">
          <mxGeometry x="410" y="250" width="160" height="160" as="geometry" />
        </mxCell>
        <mxCell id="YGZD-DeqIZyNIQfhP6jQ-13" value="&lt;u&gt;announceId&lt;/u&gt;&lt;div&gt;title&lt;/div&gt;&lt;div&gt;content&lt;/div&gt;&lt;div&gt;targetRole&lt;/div&gt;&lt;div&gt;startAt&lt;/div&gt;&lt;div&gt;endAt&lt;/div&gt;" style="align=left;strokeColor=none;fillColor=none;spacingLeft=4;spacingRight=4;fontSize=12;verticalAlign=top;resizable=0;rotatable=0;part=1;html=1;whiteSpace=wrap;" vertex="1" parent="YGZD-DeqIZyNIQfhP6jQ-12">
          <mxGeometry y="50" width="160" height="110" as="geometry" />
        </mxCell>
        <mxCell id="YGZD-DeqIZyNIQfhP6jQ-14" value="Reconciliation" style="swimlane;childLayout=stackLayout;horizontal=1;startSize=50;horizontalStack=0;rounded=1;fontSize=14;fontStyle=0;strokeWidth=2;resizeParent=0;resizeLast=1;shadow=0;dashed=0;align=center;arcSize=4;whiteSpace=wrap;html=1;" vertex="1" parent="1">
          <mxGeometry x="1130" y="-920" width="160" height="200" as="geometry" />
        </mxCell>
        <mxCell id="YGZD-DeqIZyNIQfhP6jQ-15" value="&lt;u&gt;reconId&lt;/u&gt;&lt;div&gt;periodStart&lt;/div&gt;&lt;div&gt;periodEnd&lt;/div&gt;&lt;div&gt;foundAt&lt;/div&gt;&lt;div&gt;reconType&lt;/div&gt;&lt;div&gt;diffAmount&lt;/div&gt;&lt;div&gt;affectedOrders&lt;/div&gt;&lt;div&gt;isResolved&lt;/div&gt;" style="align=left;strokeColor=none;fillColor=none;spacingLeft=4;spacingRight=4;fontSize=12;verticalAlign=top;resizable=0;rotatable=0;part=1;html=1;whiteSpace=wrap;" vertex="1" parent="YGZD-DeqIZyNIQfhP6jQ-14">
          <mxGeometry y="50" width="160" height="150" as="geometry" />
        </mxCell>
        <mxCell id="YGZD-DeqIZyNIQfhP6jQ-20" value="SalesStat_Merchant" style="shape=rhombus;double=1;perimeter=rhombusPerimeter;whiteSpace=wrap;html=1;align=center;" vertex="1" parent="1">
          <mxGeometry x="380" y="-280" width="160" height="90" as="geometry" />
        </mxCell>
        <mxCell id="YGZD-DeqIZyNIQfhP6jQ-25" value="" style="shape=link;html=1;rounded=0;entryX=0.5;entryY=0;entryDx=0;entryDy=0;exitX=0.5;exitY=1;exitDx=0;exitDy=0;" edge="1" parent="1" source="YGZD-DeqIZyNIQfhP6jQ-20" target="YGZD-DeqIZyNIQfhP6jQ-17">
          <mxGeometry width="100" relative="1" as="geometry">
            <mxPoint x="460" y="-160" as="sourcePoint" />
            <mxPoint x="459.52" y="-110" as="targetPoint" />
          </mxGeometry>
        </mxCell>
        <mxCell id="YGZD-DeqIZyNIQfhP6jQ-26" value="" style="endArrow=classic;html=1;rounded=0;entryX=0;entryY=0.75;entryDx=0;entryDy=0;exitX=0.5;exitY=0;exitDx=0;exitDy=0;" edge="1" parent="1" source="YGZD-DeqIZyNIQfhP6jQ-20">
          <mxGeometry width="50" height="50" relative="1" as="geometry">
            <mxPoint x="460" y="-300" as="sourcePoint" />
            <mxPoint x="640" y="-380" as="targetPoint" />
            <Array as="points">
              <mxPoint x="460" y="-380" />
            </Array>
          </mxGeometry>
        </mxCell>
        <mxCell id="YGZD-DeqIZyNIQfhP6jQ-27" value="Settlement_Merchant" style="shape=rhombus;double=1;perimeter=rhombusPerimeter;whiteSpace=wrap;html=1;align=center;" vertex="1" parent="1">
          <mxGeometry x="640" y="-280" width="160" height="90" as="geometry" />
        </mxCell>
        <mxCell id="YGZD-DeqIZyNIQfhP6jQ-28" value="" style="shape=link;html=1;rounded=0;entryX=0.5;entryY=0;entryDx=0;entryDy=0;exitX=0.5;exitY=1;exitDx=0;exitDy=0;" edge="1" parent="1" source="YGZD-DeqIZyNIQfhP6jQ-27" target="YGZD-DeqIZyNIQfhP6jQ-18">
          <mxGeometry width="100" relative="1" as="geometry">
            <mxPoint x="720" y="-160" as="sourcePoint" />
            <mxPoint x="720" y="-100" as="targetPoint" />
          </mxGeometry>
        </mxCell>
        <mxCell id="YGZD-DeqIZyNIQfhP6jQ-29" value="" style="endArrow=classic;html=1;rounded=0;exitX=0.5;exitY=0;exitDx=0;exitDy=0;entryX=0.5;entryY=1;entryDx=0;entryDy=0;" edge="1" parent="1" source="YGZD-DeqIZyNIQfhP6jQ-27" target="9tPwZeQdjvi17fgurPPk-11">
          <mxGeometry width="50" height="50" relative="1" as="geometry">
            <mxPoint x="719.52" y="-290" as="sourcePoint" />
            <mxPoint x="720" y="-330" as="targetPoint" />
          </mxGeometry>
        </mxCell>
        <mxCell id="YGZD-DeqIZyNIQfhP6jQ-30" value="Application_Admin" style="shape=rhombus;perimeter=rhombusPerimeter;whiteSpace=wrap;html=1;align=center;" vertex="1" parent="1">
          <mxGeometry x="70" y="-230" width="160" height="90" as="geometry" />
        </mxCell>
        <mxCell id="YGZD-DeqIZyNIQfhP6jQ-31" value="" style="shape=link;html=1;rounded=0;entryX=0.5;entryY=0;entryDx=0;entryDy=0;exitX=0.5;exitY=1;exitDx=0;exitDy=0;" edge="1" parent="1" source="9tPwZeQdjvi17fgurPPk-18" target="YGZD-DeqIZyNIQfhP6jQ-30">
          <mxGeometry width="100" relative="1" as="geometry">
            <mxPoint x="150" y="-290" as="sourcePoint" />
            <mxPoint x="150" y="-250" as="targetPoint" />
          </mxGeometry>
        </mxCell>
        <mxCell id="YGZD-DeqIZyNIQfhP6jQ-32" value="" style="endArrow=classic;html=1;rounded=0;exitX=0.5;exitY=1;exitDx=0;exitDy=0;entryX=0.5;entryY=0;entryDx=0;entryDy=0;" edge="1" parent="1" source="YGZD-DeqIZyNIQfhP6jQ-30" target="YGZD-DeqIZyNIQfhP6jQ-1">
          <mxGeometry width="50" height="50" relative="1" as="geometry">
            <mxPoint x="149.52" y="-130" as="sourcePoint" />
            <mxPoint x="149.52" y="-60" as="targetPoint" />
          </mxGeometry>
        </mxCell>
        <mxCell id="YGZD-DeqIZyNIQfhP6jQ-35" value="" style="endArrow=classic;html=1;rounded=0;exitX=0;exitY=0.5;exitDx=0;exitDy=0;entryX=1;entryY=0;entryDx=0;entryDy=0;" edge="1" parent="1" source="YGZD-DeqIZyNIQfhP6jQ-38" target="9tPwZeQdjvi17fgurPPk-18">
          <mxGeometry width="50" height="50" relative="1" as="geometry">
            <mxPoint x="330" y="-430" as="sourcePoint" />
            <mxPoint x="250" y="-430" as="targetPoint" />
          </mxGeometry>
        </mxCell>
        <mxCell id="YGZD-DeqIZyNIQfhP6jQ-37" value="" style="endArrow=classic;html=1;rounded=0;exitX=1;exitY=0.5;exitDx=0;exitDy=0;entryX=0.008;entryY=0.376;entryDx=0;entryDy=0;entryPerimeter=0;" edge="1" parent="1" source="YGZD-DeqIZyNIQfhP6jQ-38" target="9tPwZeQdjvi17fgurPPk-10">
          <mxGeometry width="50" height="50" relative="1" as="geometry">
            <mxPoint x="510" y="-430.48" as="sourcePoint" />
            <mxPoint x="600" y="-430" as="targetPoint" />
          </mxGeometry>
        </mxCell>
        <mxCell id="YGZD-DeqIZyNIQfhP6jQ-38" value="Application_Admin" style="shape=rhombus;perimeter=rhombusPerimeter;whiteSpace=wrap;html=1;align=center;" vertex="1" parent="1">
          <mxGeometry x="330" y="-470" width="160" height="80" as="geometry" />
        </mxCell>
        <mxCell id="YGZD-DeqIZyNIQfhP6jQ-43" value="Dish_Merchant" style="shape=rhombus;double=1;perimeter=rhombusPerimeter;whiteSpace=wrap;html=1;align=center;" vertex="1" parent="1">
          <mxGeometry x="640" y="-650" width="160" height="90" as="geometry" />
        </mxCell>
        <mxCell id="YGZD-DeqIZyNIQfhP6jQ-44" value="" style="endArrow=classic;html=1;rounded=0;exitX=0.5;exitY=1;exitDx=0;exitDy=0;entryX=0.5;entryY=0;entryDx=0;entryDy=0;" edge="1" parent="1" source="YGZD-DeqIZyNIQfhP6jQ-43" target="9tPwZeQdjvi17fgurPPk-10">
          <mxGeometry width="50" height="50" relative="1" as="geometry">
            <mxPoint x="719.52" y="-550" as="sourcePoint" />
            <mxPoint x="719.52" y="-490" as="targetPoint" />
          </mxGeometry>
        </mxCell>
        <mxCell id="YGZD-DeqIZyNIQfhP6jQ-46" value="" style="shape=link;html=1;rounded=0;exitX=0.5;exitY=1;exitDx=0;exitDy=0;entryX=0.5;entryY=0;entryDx=0;entryDy=0;" edge="1" parent="1" source="YGZD-DeqIZyNIQfhP6jQ-19" target="YGZD-DeqIZyNIQfhP6jQ-43">
          <mxGeometry width="100" relative="1" as="geometry">
            <mxPoint x="719.52" y="-720" as="sourcePoint" />
            <mxPoint x="720" y="-655" as="targetPoint" />
          </mxGeometry>
        </mxCell>
        <mxCell id="YGZD-DeqIZyNIQfhP6jQ-47" value="Order" style="whiteSpace=wrap;html=1;align=center;" vertex="1" parent="1">
          <mxGeometry x="1130" y="-405" width="160" height="40" as="geometry" />
        </mxCell>
        <mxCell id="YGZD-DeqIZyNIQfhP6jQ-48" value="Order_Merchant" style="shape=rhombus;perimeter=rhombusPerimeter;whiteSpace=wrap;html=1;align=center;" vertex="1" parent="1">
          <mxGeometry x="890" y="-430" width="160" height="90" as="geometry" />
        </mxCell>
        <mxCell id="YGZD-DeqIZyNIQfhP6jQ-52" value="" style="shape=link;html=1;rounded=0;exitX=0;exitY=0.5;exitDx=0;exitDy=0;entryX=1;entryY=0.5;entryDx=0;entryDy=0;" edge="1" parent="1" source="YGZD-DeqIZyNIQfhP6jQ-47" target="YGZD-DeqIZyNIQfhP6jQ-48">
          <mxGeometry width="100" relative="1" as="geometry">
            <mxPoint x="1120" y="-385.48" as="sourcePoint" />
            <mxPoint x="1060" y="-385" as="targetPoint" />
          </mxGeometry>
        </mxCell>
        <mxCell id="YGZD-DeqIZyNIQfhP6jQ-53" value="" style="endArrow=classic;html=1;rounded=0;entryX=1;entryY=0.5;entryDx=0;entryDy=0;exitX=0;exitY=0.5;exitDx=0;exitDy=0;" edge="1" parent="1" source="YGZD-DeqIZyNIQfhP6jQ-48" target="9tPwZeQdjvi17fgurPPk-11">
          <mxGeometry width="50" height="50" relative="1" as="geometry">
            <mxPoint x="880" y="-385.48" as="sourcePoint" />
            <mxPoint x="820" y="-385.48" as="targetPoint" />
          </mxGeometry>
        </mxCell>
        <mxCell id="YGZD-DeqIZyNIQfhP6jQ-54" value="Order_Coupon" style="shape=rhombus;perimeter=rhombusPerimeter;whiteSpace=wrap;html=1;align=center;" vertex="1" parent="1">
          <mxGeometry x="1130" y="-250" width="160" height="90" as="geometry" />
        </mxCell>
        <mxCell id="YGZD-DeqIZyNIQfhP6jQ-58" value="" style="endArrow=classic;html=1;rounded=0;exitX=0.5;exitY=1;exitDx=0;exitDy=0;entryX=0.5;entryY=0;entryDx=0;entryDy=0;" edge="1" parent="1" source="YGZD-DeqIZyNIQfhP6jQ-54" target="YGZD-DeqIZyNIQfhP6jQ-5">
          <mxGeometry width="50" height="50" relative="1" as="geometry">
            <mxPoint x="1209.52" y="-140" as="sourcePoint" />
            <mxPoint x="1209.52" y="-80" as="targetPoint" />
          </mxGeometry>
        </mxCell>
        <mxCell id="YGZD-DeqIZyNIQfhP6jQ-59" value="" style="endArrow=none;html=1;rounded=0;entryX=0.5;entryY=1;entryDx=0;entryDy=0;exitX=0.5;exitY=0;exitDx=0;exitDy=0;" edge="1" parent="1" source="YGZD-DeqIZyNIQfhP6jQ-54" target="YGZD-DeqIZyNIQfhP6jQ-47">
          <mxGeometry width="50" height="50" relative="1" as="geometry">
            <mxPoint x="1209.52" y="-260" as="sourcePoint" />
            <mxPoint x="1209.52" y="-350" as="targetPoint" />
          </mxGeometry>
        </mxCell>
        <mxCell id="YGZD-DeqIZyNIQfhP6jQ-60" value="&lt;font style=&quot;font-size: 20px;&quot;&gt;注：&lt;/font&gt;&lt;div&gt;&lt;font style=&quot;font-size: 20px;&quot;&gt;1.此处的Coupon(优惠券)为一类，故和订单关系为一对多；&lt;/font&gt;&lt;div&gt;&lt;font style=&quot;font-size: 20px;&quot;&gt;2.每对关系的情况为：&lt;/font&gt;&lt;/div&gt;&lt;/div&gt;&lt;div&gt;&lt;font style=&quot;font-size: 20px;&quot;&gt;&lt;span style=&quot;white-space: pre;&quot;&gt;&#x9;&lt;/span&gt;Application_Admin：Admin的adminId给Application当外键（多对一）&lt;br&gt;&lt;/font&gt;&lt;/div&gt;&lt;div&gt;&lt;font style=&quot;font-size: 20px;&quot;&gt;&lt;span style=&quot;white-space: pre;&quot;&gt;&#x9;&lt;/span&gt;Application_Mercant：merchantId给Application当外键（一对一）&lt;br&gt;&lt;/font&gt;&lt;/div&gt;&lt;div&gt;&lt;font style=&quot;font-size: 20px;&quot;&gt;&lt;span style=&quot;white-space: pre;&quot;&gt;&#x9;&lt;/span&gt;SalesStat_Merchant：&lt;span style=&quot;background-color: transparent; color: light-dark(rgb(0, 0, 0), rgb(255, 255, 255));&quot;&gt;merchantId给SalesStat(弱实体集)当外键（多对一）&lt;/span&gt;&lt;br&gt;&lt;/font&gt;&lt;/div&gt;&lt;div&gt;&lt;font style=&quot;font-size: 20px;&quot;&gt;&lt;span style=&quot;background-color: transparent; color: light-dark(rgb(0, 0, 0), rgb(255, 255, 255));&quot;&gt;&lt;span style=&quot;white-space: pre;&quot;&gt;&#x9;&lt;/span&gt;Settlement_Merchant：&lt;/span&gt;&lt;span style=&quot;background-color: transparent; color: light-dark(rgb(0, 0, 0), rgb(255, 255, 255));&quot;&gt;merchantId给Settlement(弱实体集)当外键（多对一）&lt;/span&gt;&lt;span style=&quot;background-color: transparent; color: light-dark(rgb(0, 0, 0), rgb(255, 255, 255));&quot;&gt;&lt;br&gt;&lt;/span&gt;&lt;/font&gt;&lt;/div&gt;&lt;div&gt;&lt;font style=&quot;font-size: 20px;&quot;&gt;&lt;span style=&quot;background-color: transparent; color: light-dark(rgb(0, 0, 0), rgb(255, 255, 255));&quot;&gt;&lt;span style=&quot;white-space: pre;&quot;&gt;&#x9;&lt;/span&gt;Dish_Merchant：&lt;/span&gt;&lt;span style=&quot;background-color: transparent; color: light-dark(rgb(0, 0, 0), rgb(255, 255, 255));&quot;&gt;merchantId给Dish(弱实体集)当外键（多对一）&lt;/span&gt;&lt;span style=&quot;background-color: transparent; color: light-dark(rgb(0, 0, 0), rgb(255, 255, 255));&quot;&gt;&lt;br&gt;&lt;/span&gt;&lt;/font&gt;&lt;/div&gt;&lt;div&gt;&lt;font style=&quot;font-size: 20px;&quot;&gt;&lt;span style=&quot;background-color: transparent; color: light-dark(rgb(0, 0, 0), rgb(255, 255, 255));&quot;&gt;&lt;span style=&quot;white-space: pre;&quot;&gt;&#x9;&lt;/span&gt;Order_Merchant：&lt;/span&gt;&lt;span style=&quot;background-color: transparent; color: light-dark(rgb(0, 0, 0), rgb(255, 255, 255));&quot;&gt;merchantId给Order当外键（多对一）&lt;/span&gt;&lt;span style=&quot;background-color: transparent; color: light-dark(rgb(0, 0, 0), rgb(255, 255, 255));&quot;&gt;&lt;br&gt;&lt;/span&gt;&lt;/font&gt;&lt;/div&gt;&lt;div&gt;&lt;font style=&quot;font-size: 20px;&quot;&gt;&lt;span style=&quot;background-color: transparent; color: light-dark(rgb(0, 0, 0), rgb(255, 255, 255));&quot;&gt;&lt;span style=&quot;white-space: pre;&quot;&gt;&#x9;&lt;/span&gt;Order_Coupon：couponId给Order当外键（可能有null，所以可以建个关系集）&lt;br&gt;&lt;/span&gt;&lt;/font&gt;&lt;/div&gt;&lt;div&gt;&lt;font style=&quot;font-size: 20px;&quot;&gt;&lt;span style=&quot;background-color: transparent; color: light-dark(rgb(0, 0, 0), rgb(255, 255, 255));&quot;&gt;&lt;span style=&quot;white-space: pre;&quot;&gt;&#x9;&lt;/span&gt;Order_Reconciliation：可能有大量null（大多数账单都不会异常），考虑建关系集&lt;br&gt;&lt;/span&gt;&lt;/font&gt;&lt;/div&gt;&lt;div&gt;&lt;font style=&quot;font-size: 20px;&quot;&gt;&lt;span style=&quot;background-color: transparent; color: light-dark(rgb(0, 0, 0), rgb(255, 255, 255));&quot;&gt;3.SalesStat：商家销量统计&lt;/span&gt;&lt;/font&gt;&lt;/div&gt;&lt;div&gt;&lt;font style=&quot;font-size: 20px;&quot;&gt;&lt;span style=&quot;background-color: transparent; color: light-dark(rgb(0, 0, 0), rgb(255, 255, 255));&quot;&gt;&amp;nbsp; &amp;nbsp;Settlement：商家获利等统计（最终获利netAmount可通过相减算出，故建表可删）&lt;/span&gt;&lt;/font&gt;&lt;/div&gt;&lt;div&gt;&lt;font style=&quot;font-size: 20px;&quot;&gt;&lt;span style=&quot;background-color: transparent; color: light-dark(rgb(0, 0, 0), rgb(255, 255, 255));&quot;&gt;&amp;nbsp; &amp;nbsp;Reconciliation：对账异常&lt;/span&gt;&lt;/font&gt;&lt;/div&gt;&lt;div&gt;&lt;font style=&quot;font-size: 20px;&quot;&gt;&lt;span style=&quot;background-color: transparent; color: light-dark(rgb(0, 0, 0), rgb(255, 255, 255));&quot;&gt;&amp;nbsp; &amp;nbsp;Coupon：优惠券（一类），对应用户还应该有用户的优惠券与此联系&lt;/span&gt;&lt;/font&gt;&lt;/div&gt;" style="whiteSpace=wrap;html=1;align=left;" vertex="1" parent="1">
          <mxGeometry x="-210" y="-980" width="760" height="480" as="geometry" />
        </mxCell>
        <mxCell id="YGZD-DeqIZyNIQfhP6jQ-61" value="" style="endArrow=classic;html=1;rounded=0;entryX=0.5;entryY=1;entryDx=0;entryDy=0;exitX=0.5;exitY=0;exitDx=0;exitDy=0;" edge="1" parent="1" source="YGZD-DeqIZyNIQfhP6jQ-62" target="YGZD-DeqIZyNIQfhP6jQ-15">
          <mxGeometry width="50" height="50" relative="1" as="geometry">
            <mxPoint x="1210" y="-660" as="sourcePoint" />
            <mxPoint x="1209.29" y="-700" as="targetPoint" />
          </mxGeometry>
        </mxCell>
        <mxCell id="YGZD-DeqIZyNIQfhP6jQ-62" value="Order_Reconciliation" style="shape=rhombus;perimeter=rhombusPerimeter;whiteSpace=wrap;html=1;align=center;" vertex="1" parent="1">
          <mxGeometry x="1130" y="-640" width="160" height="90" as="geometry" />
        </mxCell>
        <mxCell id="YGZD-DeqIZyNIQfhP6jQ-64" value="" style="endArrow=none;html=1;rounded=0;entryX=0.5;entryY=1;entryDx=0;entryDy=0;exitX=0.5;exitY=0;exitDx=0;exitDy=0;" edge="1" parent="1" source="YGZD-DeqIZyNIQfhP6jQ-47" target="YGZD-DeqIZyNIQfhP6jQ-62">
          <mxGeometry width="50" height="50" relative="1" as="geometry">
            <mxPoint x="1209.29" y="-470" as="sourcePoint" />
            <mxPoint x="1209.29" y="-540" as="targetPoint" />
          </mxGeometry>
        </mxCell>
      </root>
    </mxGraphModel>
  </diagram>
</mxfile>
